<?xml version="1.0" encoding="UTF-8"?>
<!DOCTYPE svg PUBLIC "-//W3C//DTD SVG 1.1//EN" "http://www.w3.org/Graphics/SVG/1.1/DTD/svg11.dtd">
<!-- Creator: CorelDRAW 2018 (64 Bit) -->
<svg xmlns="http://www.w3.org/2000/svg" xml:space="preserve" width="147.287mm" height="135.867mm" version="1.1" style="shape-rendering:geometricPrecision; text-rendering:geometricPrecision; image-rendering:optimizeQuality; fill-rule:evenodd; clip-rule:evenodd"
viewBox="0 0 14060.72 12970.53"
 xmlns:xlink="http://www.w3.org/1999/xlink">
 <defs>
  <style type="text/css">
   <![CDATA[
    .str0 {stroke:#A9ABAE;stroke-width:19.09;stroke-miterlimit:22.9256}
    .fil0 {fill:none}
   ]]>
  </style>
 </defs>
 <g id="Camada_x0020_1">
  <metadata id="CorelCorpID_0Corel-Layer"/>
  <path class="fil0 str0" d="M1073.97 10447.78l5775.59 -5611.13 0 4215.57 -3220.02 3034.78c-1550.19,695.3 -2820.49,-361.25 -2555.57,-1639.22z"/>
  <path class="fil0 str0" d="M2191.44 5339.22l4658.12 -4525.46 0 3355.53 -2625.06 2474.02c-1233.24,553.14 -2243.83,-287.4 -2033.06,-1304.09z"/>
  <polygon class="fil0 str0" points="7223.45,7304.42 9822.87,9471.89 9822.87,12960.98 7223.45,12960.98 "/>
  <polygon class="fil0 str0" points="7297.23,568.8 14051.17,6711.37 14051.17,12675.8 7297.23,6904.42 "/>
  <line class="fil0 str0" x1="6194.09" y1="12413.79" x2="7342.52" y2= "12960.98" />
  <line class="fil0 str0" x1="8793.51" y1="12413.79" x2="9822.87" y2= "12960.98" />
  <line class="fil0 str0" x1="13021.81" y1="12128.61" x2="14051.17" y2= "12675.8" />
  <line class="fil0 str0" x1="13021.81" y1="6164.17" x2="14051.17" y2= "6711.37" />
  <line class="fil0 str0" x1="8793.51" y1="8924.7" x2="9822.87" y2= "9471.89" />
  <line class="fil0 str0" x1="6194.09" y1="6757.23" x2="7293.15" y2= "7362.53" />
  <line class="fil0 str0" x1="6267.88" y1="21.59" x2="7297.24" y2= "568.8" />
  <polyline class="fil0 str0" points="5820.2,266.57 6849.56,813.76 5820.2,1813.8 "/>
  <line class="fil0 str0" x1="5820.2" y1="3622.08" x2="6849.56" y2= "4169.29" />
  <line class="fil0 str0" x1="5820.2" y1="4289.46" x2="6849.56" y2= "4836.65" />
  <line class="fil0 str0" x1="5820.2" y1="8505.02" x2="6849.56" y2= "9052.22" />
  <path class="fil0 str0" d="M44.61 9900.58l5775.59 -5611.13 0 4215.57 -3220.03 3034.77c-1550.19,695.31 -2820.48,-361.25 -2555.56,-1639.21zm6223.27 -9878.99l6753.93 6142.58 0 5964.43 -6753.93 -5771.38 0 -6335.63zm-73.78 6735.63l2599.42 2167.47 0 3489.09 -2599.42 0 0 -5656.56zm-5032.01 -1965.21l4658.12 -4525.46 0 3355.52 -2625.07 2474.03c-1233.24,553.13 -2243.82,-287.41 -2033.05,-1304.1z"/>
 </g>
</svg>
