<?xml version="1.0" encoding="UTF-8"?>
<!DOCTYPE svg PUBLIC "-//W3C//DTD SVG 1.1//EN" "http://www.w3.org/Graphics/SVG/1.1/DTD/svg11.dtd">
<!-- Creator: CorelDRAW 2018 -->
<svg xmlns="http://www.w3.org/2000/svg" xml:space="preserve" width="200px" height="220px" version="1.1" style="shape-rendering:geometricPrecision; text-rendering:geometricPrecision; image-rendering:optimizeQuality; fill-rule:evenodd; clip-rule:evenodd"
viewBox="0 0 93.13 102.34"
 xmlns:xlink="http://www.w3.org/1999/xlink">
 <defs>
  <style type="text/css">
   <![CDATA[
    .fil0 {fill:#F79233}
    .fil3 {fill:#F15D36}
    .fil2 {fill:#282829}
    .fil1 {fill:#201E1E;fill-rule:nonzero}
   ]]>
  </style>
 </defs>
 <g id="Layer_x0020_1">
  <metadata id="CorelCorpID_0Corel-Layer"/>
  <polygon class="fil0" points="7.76,81.5 82.95,81.5 82.95,102.34 7.76,102.34 "/>
  <polygon class="fil0" points="0,67.58 93.13,67.58 93.13,88.42 0,88.42 "/>
  <path class="fil1" d="M4.78 83.22c-0.79,0 -1.47,-0.09 -2.04,-0.27 -0.58,-0.18 -1.09,-0.51 -1.56,-0.98l1.5 -1.5c0.23,0.24 0.53,0.41 0.91,0.51 0.38,0.11 0.78,0.16 1.21,0.16 0.9,0 1.36,-0.28 1.36,-0.85 0,-0.24 -0.05,-0.41 -0.14,-0.51 -0.1,-0.1 -0.19,-0.17 -0.29,-0.21 -0.1,-0.05 -0.23,-0.08 -0.39,-0.09l-1.14 -0.16c-0.85,-0.13 -1.49,-0.41 -1.92,-0.85 -0.43,-0.44 -0.64,-1.07 -0.64,-1.9 0,-0.88 0.31,-1.6 0.93,-2.16 0.62,-0.56 1.47,-0.84 2.53,-0.84 0.7,0 1.31,0.09 1.82,0.26 0.51,0.17 0.97,0.46 1.38,0.87l-1.46 1.47c-0.18,-0.18 -0.4,-0.32 -0.66,-0.41 -0.26,-0.1 -0.58,-0.15 -0.97,-0.15l-0.17 0c-0.39,0 -0.67,0.09 -0.86,0.26 -0.2,0.17 -0.29,0.38 -0.29,0.62 0,0.1 0.02,0.18 0.05,0.25 0.03,0.06 0.08,0.13 0.14,0.2 0.07,0.06 0.15,0.12 0.25,0.17 0.1,0.05 0.23,0.08 0.4,0.1l1.15 0.16c0.83,0.11 1.41,0.33 1.74,0.66 0.33,0.32 0.55,0.66 0.66,1 0.11,0.34 0.17,0.74 0.17,1.21 0,0.92 -0.35,1.65 -1.05,2.18 -0.7,0.53 -1.57,0.8 -2.62,0.8z"/>
  <path id="1" class="fil1" d="M13.41 83.22c-1.02,0 -1.87,-0.31 -2.56,-0.94 -0.68,-0.63 -1.03,-1.45 -1.03,-2.47l0 -6.16 2.33 0 0 6.11c0,0.43 0.11,0.77 0.33,1.02 0.22,0.24 0.53,0.36 0.93,0.36 0.39,0 0.7,-0.12 0.93,-0.36 0.23,-0.24 0.35,-0.58 0.35,-1.02l0 -6.11 2.33 0 0 6.16c0,1.01 -0.35,1.83 -1.05,2.46 -0.69,0.64 -1.55,0.95 -2.56,0.95z"/>
  <path id="2" class="fil1" d="M24.08 83.15l-0.44 -1.42 -2.91 0 -0.47 1.42 -2.44 0 3.45 -9.5 1.8 0 3.45 9.5 -2.44 0zm-1.85 -5.9l-0.85 2.53 1.65 0 -0.8 -2.53z"/>
  <path class="fil1" d="M32.6 88.24c-2.15,0 -3.82,-0.6 -5.01,-1.78 -1.19,-1.19 -1.88,-2.34 -2.08,-3.47 -0.2,-1.12 -0.3,-2.68 -0.3,-4.67 0,-2.08 0.09,-3.66 0.28,-4.73 0.2,-1.06 0.7,-2.01 1.52,-2.83 0.83,-0.82 1.69,-1.42 2.59,-1.79 0.91,-0.38 1.91,-0.57 3,-0.57 1.92,0 3.55,0.56 4.88,1.67 1.33,1.12 2.17,2.75 2.52,4.91l-4.88 0c-0.18,-0.73 -0.45,-1.29 -0.82,-1.7 -0.36,-0.4 -0.92,-0.6 -1.67,-0.6 -0.44,0 -0.81,0.07 -1.12,0.2 -0.31,0.14 -0.58,0.35 -0.8,0.65 -0.22,0.29 -0.39,0.76 -0.52,1.41 -0.13,0.65 -0.19,1.77 -0.19,3.38 0,1.66 0.05,2.79 0.16,3.38 0.11,0.6 0.34,1.12 0.69,1.58 0.35,0.46 0.94,0.68 1.78,0.68 0.73,0 1.28,-0.16 1.66,-0.5 0.37,-0.33 0.65,-0.79 0.83,-1.36l4.88 0c-0.35,2.01 -1.18,3.54 -2.51,4.58 -1.32,1.04 -2.95,1.56 -4.89,1.56z"/>
  <path id="1" class="fil1" d="M53.42 88.1l-0.9 -2.93 -6 0 -0.96 2.93 -5.01 0 7.09 -19.53 3.7 0 7.1 19.53 -5.02 0zm-3.8 -12.14l-1.76 5.21 3.4 0 -1.64 -5.21z"/>
  <path id="2" class="fil1" d="M65.97 88.24c-1.62,0 -3.03,-0.19 -4.2,-0.56 -1.18,-0.38 -2.25,-1.05 -3.2,-2.02l3.07 -3.07c0.48,0.48 1.1,0.83 1.88,1.05 0.78,0.21 1.6,0.32 2.48,0.32 1.86,0 2.79,-0.58 2.79,-1.75 0,-0.49 -0.09,-0.84 -0.29,-1.04 -0.19,-0.2 -0.38,-0.35 -0.58,-0.44 -0.21,-0.09 -0.47,-0.15 -0.8,-0.19l-2.35 -0.33c-1.74,-0.25 -3.05,-0.83 -3.94,-1.74 -0.88,-0.9 -1.32,-2.2 -1.32,-3.9 0,-1.81 0.63,-3.29 1.91,-4.44 1.28,-1.15 3.02,-1.73 5.21,-1.73 1.44,0 2.69,0.18 3.74,0.54 1.05,0.35 1.99,0.95 2.83,1.79l-3.01 3.02c-0.37,-0.37 -0.81,-0.65 -1.34,-0.85 -0.53,-0.2 -1.2,-0.3 -2,-0.3l-0.36 0c-0.78,0 -1.37,0.17 -1.77,0.53 -0.39,0.36 -0.58,0.78 -0.58,1.27 0,0.2 0.03,0.37 0.09,0.51 0.07,0.14 0.17,0.27 0.3,0.41 0.14,0.14 0.31,0.26 0.51,0.36 0.2,0.1 0.47,0.17 0.82,0.2l2.36 0.33c1.71,0.24 2.91,0.69 3.59,1.36 0.67,0.66 1.12,1.35 1.35,2.05 0.23,0.71 0.34,1.53 0.34,2.48 0,1.9 -0.71,3.4 -2.15,4.49 -1.43,1.1 -3.22,1.65 -5.38,1.65z"/>
  <path id="3" class="fil1" d="M87.56 88.1l-0.91 -2.93 -6 0 -0.95 2.93 -5.02 0 7.1 -19.53 3.7 0 7.09 19.53 -5.01 0zm-3.81 -12.14l-1.75 5.21 3.39 0 -1.64 -5.21z"/>
  <path class="fil2" d="M6.41 51.92l30.35 -29.49 0 22.15 -16.92 15.95c-8.15,3.66 -14.82,-1.9 -13.43,-8.61z"/>
  <path class="fil0" d="M12.28 25.07l24.48 -23.78 0 17.63 -13.79 13c-6.48,2.91 -11.8,-1.51 -10.69,-6.85z"/>
  <polygon class="fil0" points="38.73,35.4 52.39,46.79 52.39,65.13 38.73,65.13 "/>
  <polygon class="fil3" points="39.12,0 74.61,32.28 74.61,63.63 39.12,33.3 "/>
  <path class="fil1" d="M40.22 95.34l0.09 -0.54c0,-0.05 0.01,-0.09 0.01,-0.13 0.01,-0.04 0.02,-0.09 0.03,-0.14 0.01,-0.02 0.02,-0.04 0.03,-0.07 0.01,-0.02 0.02,-0.04 0.03,-0.06 0.03,-0.13 0.05,-0.24 0.09,-0.34 0.03,-0.1 0.07,-0.2 0.11,-0.3 0.08,-0.2 0.18,-0.4 0.3,-0.61 0.03,-0.06 0.07,-0.11 0.11,-0.18 0.03,-0.06 0.07,-0.11 0.1,-0.17 0.03,-0.03 0.05,-0.07 0.07,-0.1 0.02,-0.03 0.04,-0.06 0.07,-0.08 0.03,-0.04 0.06,-0.07 0.09,-0.11 0.03,-0.04 0.06,-0.07 0.09,-0.09 0.06,-0.08 0.13,-0.15 0.2,-0.23 0.06,-0.07 0.13,-0.13 0.21,-0.19 0.06,-0.05 0.11,-0.09 0.17,-0.12 0.07,-0.03 0.12,-0.06 0.18,-0.09 0.04,-0.03 0.07,-0.05 0.1,-0.07 0.05,-0.07 0.11,-0.11 0.19,-0.14 0.07,-0.03 0.14,-0.05 0.22,-0.08 0.05,-0.02 0.11,-0.04 0.16,-0.05 0.06,-0.01 0.13,0 0.2,0.02 0.06,0.01 0.11,0.02 0.16,0.03 0.05,0 0.11,0.02 0.16,0.05 0.12,0.09 0.21,0.19 0.25,0.3 0.01,0.06 0.04,0.13 0.08,0.22 0.02,0.05 0.05,0.1 0.08,0.14 0.03,0.04 0.05,0.09 0.07,0.14 0,0.01 0.01,0.02 0.01,0.03 0.01,0.02 0.01,0.03 0.01,0.04 -0.01,0.05 -0.02,0.11 -0.03,0.17 0,0.06 -0.02,0.12 -0.04,0.18 0,0.07 -0.01,0.15 -0.05,0.21 0,0.01 0,0.03 -0.01,0.04 -0.02,0.01 -0.03,0.02 -0.04,0.05 -0.02,0.03 -0.04,0.06 -0.06,0.1 -0.01,0.03 -0.03,0.06 -0.05,0.1 -0.04,0.05 -0.07,0.11 -0.1,0.16 -0.02,0.06 -0.05,0.11 -0.09,0.17 0,0 -0.01,0.01 -0.05,0.05 -0.08,0.04 -0.14,0.08 -0.16,0.11 -0.16,0.24 -0.34,0.44 -0.55,0.6 -0.09,0.08 -0.18,0.15 -0.27,0.22 -0.1,0.07 -0.19,0.14 -0.27,0.22 -0.08,0.05 -0.16,0.1 -0.24,0.14 -0.07,0.05 -0.15,0.1 -0.23,0.15 -0.07,0.04 -0.12,0.12 -0.15,0.24 -0.03,0.1 -0.06,0.2 -0.09,0.31 -0.02,0.11 -0.05,0.22 -0.07,0.34 -0.02,0.08 -0.04,0.17 -0.05,0.25 -0.01,0.09 -0.04,0.17 -0.08,0.24 0,0.02 0,0.03 0.01,0.04 0,0.01 0,0.02 0,0.03 0.08,0.09 0.16,0.17 0.24,0.23 0.08,0.07 0.19,0.11 0.33,0.12 0.08,0.01 0.17,0.01 0.26,0 0.09,-0.01 0.18,-0.03 0.26,-0.05 0.09,-0.01 0.18,-0.04 0.26,-0.08 0.08,-0.05 0.16,-0.1 0.24,-0.15 0.09,-0.07 0.18,-0.13 0.27,-0.19 0.1,-0.05 0.19,-0.12 0.28,-0.19 0.13,-0.11 0.25,-0.21 0.37,-0.32 0.12,-0.11 0.22,-0.24 0.31,-0.38 0.06,-0.1 0.14,-0.2 0.21,-0.3 0.08,-0.1 0.15,-0.2 0.22,-0.3 0.11,-0.18 0.22,-0.36 0.33,-0.53 0.1,-0.18 0.21,-0.36 0.32,-0.55 0.03,-0.06 0.07,-0.11 0.1,-0.17 0.03,-0.05 0.07,-0.11 0.1,-0.17 0.03,-0.03 0.07,-0.03 0.1,-0.01 0.04,0.02 0.07,0.06 0.08,0.11 0.01,0.06 0.01,0.12 -0.02,0.17 -0.02,0.09 -0.06,0.16 -0.12,0.2 -0.06,0.04 -0.12,0.1 -0.17,0.17 -0.06,0.05 -0.09,0.12 -0.09,0.21 -0.02,0.07 -0.04,0.13 -0.06,0.19l-0.1 0.25c-0.03,0.05 -0.05,0.08 -0.09,0.09 -0.05,0.06 -0.1,0.11 -0.15,0.16 -0.04,0.05 -0.07,0.12 -0.1,0.21 -0.01,0.03 -0.02,0.06 -0.05,0.09 -0.02,0.03 -0.04,0.06 -0.06,0.09 -0.06,0.1 -0.12,0.2 -0.19,0.29 -0.06,0.1 -0.14,0.18 -0.23,0.26 -0.04,0.05 -0.08,0.09 -0.11,0.13 -0.02,0.05 -0.05,0.1 -0.07,0.15 -0.06,0.1 -0.12,0.2 -0.18,0.28 -0.07,0.08 -0.15,0.15 -0.24,0.21 -0.05,0.03 -0.1,0.06 -0.15,0.09 -0.05,0.03 -0.11,0.06 -0.16,0.09 -0.05,0.02 -0.09,0.05 -0.12,0.07 -0.03,0.03 -0.07,0.06 -0.12,0.08 -0.05,0.02 -0.1,0.04 -0.14,0.05 -0.05,0.01 -0.1,0.03 -0.15,0.05 -0.09,0.02 -0.15,0.03 -0.18,0.03 -0.06,0.01 -0.11,0.02 -0.15,0.02 -0.05,0 -0.1,0 -0.15,0.02 -0.16,0.02 -0.3,0.01 -0.44,-0.02 -0.14,-0.03 -0.28,-0.08 -0.42,-0.13 -0.12,-0.06 -0.23,-0.13 -0.33,-0.23 -0.1,-0.09 -0.19,-0.2 -0.28,-0.31 -0.08,-0.08 -0.15,-0.19 -0.22,-0.31 -0.06,-0.15 -0.12,-0.29 -0.17,-0.44 -0.05,-0.15 -0.07,-0.3 -0.06,-0.46 -0.01,0 -0.01,0 -0.01,-0.02zm3.04 -2.89c-0.02,0.02 -0.04,0.04 -0.06,0.05 -0.03,0.01 -0.05,0.03 -0.07,0.05 -0.06,0.03 -0.11,0.07 -0.16,0.1 -0.05,0.03 -0.1,0.07 -0.16,0.1 -0.02,0.02 -0.04,0.04 -0.06,0.04 -0.02,0.01 -0.04,0.02 -0.05,0.04 -0.06,0.09 -0.11,0.18 -0.16,0.25 -0.05,0.08 -0.1,0.16 -0.16,0.24 -0.02,0.03 -0.03,0.06 -0.04,0.09 -0.01,0.02 -0.02,0.05 -0.04,0.07 -0.02,0.06 -0.05,0.1 -0.08,0.14 -0.04,0.04 -0.07,0.09 -0.09,0.14 -0.02,0.06 -0.04,0.12 -0.06,0.18 -0.01,0.06 -0.03,0.12 -0.05,0.17 -0.08,0.18 -0.15,0.38 -0.22,0.59 0,0 0.02,-0.02 0.07,-0.04 0.09,-0.05 0.17,-0.11 0.25,-0.16 0.09,-0.06 0.17,-0.12 0.24,-0.19 0.12,-0.09 0.22,-0.18 0.33,-0.28 0.1,-0.1 0.21,-0.2 0.31,-0.32 0.12,-0.12 0.21,-0.26 0.27,-0.41 0.06,-0.16 0.12,-0.32 0.18,-0.48 0.02,-0.05 0.03,-0.09 0.03,-0.13 0,-0.04 0,-0.08 0.02,-0.14 -0.12,0.03 -0.19,0 -0.24,-0.1z"/>
  <path id="1" class="fil1" d="M50.69 94.46c0.03,0.03 0.03,0.05 0,0.07 -0.03,0.02 -0.06,0.05 -0.08,0.1 -0.09,0.15 -0.18,0.31 -0.25,0.46 -0.08,0.15 -0.18,0.3 -0.29,0.45 -0.03,0.06 -0.06,0.11 -0.08,0.17 -0.02,0.05 -0.06,0.11 -0.1,0.17 -0.1,0.13 -0.21,0.26 -0.32,0.39 -0.12,0.12 -0.26,0.24 -0.41,0.34 -0.05,0.03 -0.09,0.07 -0.14,0.13 -0.05,0.06 -0.11,0.09 -0.16,0.12 -0.09,0.02 -0.17,0.04 -0.26,0.05 -0.08,0.01 -0.17,0.02 -0.26,0.05 -0.14,0.02 -0.28,0.02 -0.41,0 -0.05,0.02 -0.08,0.04 -0.12,0.06 -0.03,0.03 -0.07,0.05 -0.11,0.07 -0.05,0.02 -0.13,0.04 -0.24,0.07 -0.01,0 -0.06,0.01 -0.15,0.03 -0.1,0.02 -0.2,0.04 -0.32,0.06 -0.12,0.01 -0.23,0.03 -0.34,0.06 -0.11,0.02 -0.19,0.03 -0.23,0.03 -0.06,0.01 -0.11,0.02 -0.15,0.03 -0.03,0.01 -0.08,0 -0.14,-0.05l-0.03 0c-0.11,0.04 -0.21,0.02 -0.3,-0.03 -0.09,-0.06 -0.18,-0.1 -0.27,-0.13 -0.02,-0.02 -0.03,-0.03 -0.05,-0.04 -0.01,-0.01 -0.02,-0.01 -0.04,-0.01 -0.06,-0.01 -0.1,-0.04 -0.14,-0.07 -0.03,-0.03 -0.06,-0.07 -0.08,-0.12 -0.02,-0.03 -0.01,-0.07 0.03,-0.13 0.05,-0.06 0.09,-0.07 0.14,-0.03 0.08,0.05 0.17,0.1 0.25,0.15 0.09,0.04 0.18,0.07 0.28,0.08 0.03,0.01 0.09,0.03 0.18,0.05 0.12,0.01 0.22,-0.01 0.3,-0.06 0.08,-0.05 0.14,-0.11 0.2,-0.17 0.02,-0.05 0.05,-0.07 0.08,-0.07 0.17,-0.07 0.3,-0.16 0.38,-0.27 0.09,-0.12 0.17,-0.25 0.24,-0.39 0.03,-0.07 0.06,-0.14 0.09,-0.21 0.03,-0.07 0.04,-0.15 0.04,-0.23 0,-0.15 -0.01,-0.31 -0.02,-0.47 -0.01,-0.16 -0.05,-0.32 -0.13,-0.49 -0.1,-0.21 -0.23,-0.42 -0.38,-0.63 -0.06,-0.08 -0.13,-0.15 -0.21,-0.22 -0.08,-0.07 -0.16,-0.14 -0.22,-0.22 -0.09,-0.1 -0.19,-0.19 -0.29,-0.28 -0.11,-0.09 -0.21,-0.17 -0.3,-0.26 -0.01,0 -0.05,-0.04 -0.13,-0.12l-0.13 -0.13c-0.12,-0.14 -0.22,-0.26 -0.3,-0.39 -0.08,-0.12 -0.15,-0.26 -0.2,-0.43 -0.1,-0.26 -0.1,-0.51 0,-0.75 0.02,-0.05 0.05,-0.1 0.1,-0.14 0.04,-0.04 0.09,-0.08 0.13,-0.12 0.04,-0.04 0.07,-0.07 0.12,-0.09 0.04,-0.03 0.08,-0.06 0.11,-0.09 0.14,-0.13 0.32,-0.2 0.54,-0.24 0.22,-0.03 0.43,0.04 0.65,0.22 0.02,0.02 0.05,0.06 0.08,0.11 0.03,0.05 0.06,0.1 0.07,0.15 0.02,0.05 0.02,0.09 0.02,0.12 -0.01,0.03 -0.03,0.05 -0.08,0.05 -0.04,0 -0.07,0.04 -0.09,0.12 -0.03,0.08 -0.05,0.15 -0.07,0.22 -0.02,0.07 -0.05,0.14 -0.08,0.21 -0.03,0.04 -0.05,0.08 -0.09,0.11 -0.03,0.03 -0.06,0.06 -0.08,0.09 -0.07,0.1 -0.09,0.18 -0.07,0.25 0.02,0.07 0.09,0.16 0.2,0.28 0.12,0.15 0.26,0.27 0.42,0.38 0.15,0.1 0.31,0.21 0.46,0.34 0.15,0.08 0.28,0.18 0.4,0.29 0.12,0.1 0.25,0.22 0.37,0.34 0.06,0.06 0.13,0.13 0.19,0.2 0.06,0.06 0.12,0.13 0.17,0.2 0.06,0.05 0.11,0.1 0.15,0.15 0.05,0.05 0.1,0.11 0.15,0.16 0.09,0.09 0.15,0.19 0.18,0.29 0.03,0.09 0.05,0.19 0.07,0.29 0.02,0.06 0.04,0.11 0.05,0.15 0.01,0.03 0.02,0.08 0.02,0.14 0.01,0.15 -0.01,0.29 -0.07,0.41 -0.05,0.12 -0.12,0.23 -0.19,0.33 -0.07,0.09 -0.15,0.17 -0.23,0.24 -0.08,0.06 -0.15,0.12 -0.19,0.16l-0.1 0.1 0.15 -0.05c0.14,-0.02 0.26,-0.07 0.35,-0.14 0.09,-0.07 0.17,-0.14 0.26,-0.22 0.29,-0.23 0.53,-0.49 0.72,-0.78 0.19,-0.28 0.37,-0.56 0.55,-0.85 0.02,-0.02 0.03,-0.05 0.05,-0.08 0.01,-0.04 0.02,-0.08 0.05,-0.14 0.04,0.02 0.06,0.03 0.07,0.02 0.01,-0.01 0.03,0 0.06,0.03z"/>
  <path id="2" class="fil1" d="M49.08 90.19c0.14,-0.07 0.28,-0.13 0.41,-0.18 0.06,-0.02 0.11,-0.03 0.16,-0.03 0.05,0.01 0.1,0.01 0.16,-0.01 0.12,0 0.24,0 0.35,0 0.11,-0.01 0.22,-0.01 0.35,-0.01 0.03,-0.01 0.07,-0.02 0.1,-0.01 0.04,0.01 0.08,0.01 0.13,0.01 0.01,-0.06 0.02,-0.11 0.02,-0.14 0.01,-0.04 0.01,-0.09 0.01,-0.14 0.01,-0.12 0.02,-0.26 0.03,-0.43 0,-0.17 0.01,-0.35 0.02,-0.52 0.01,-0.18 0.02,-0.35 0.03,-0.52 0,-0.16 0,-0.3 0,-0.41 0.02,-0.04 0.02,-0.07 0.01,-0.11 0,-0.04 -0.01,-0.08 -0.01,-0.11 0.04,-0.23 0.17,-0.33 0.4,-0.3 0.14,0.02 0.26,0.06 0.36,0.13 0.11,0.06 0.19,0.15 0.24,0.27 0.02,0.06 0.04,0.11 0.06,0.15 0.02,0.04 0.04,0.09 0.06,0.15 0.04,0.12 0.08,0.24 0.11,0.36 0.04,0.11 0.07,0.23 0.1,0.35 0.02,0.04 0.03,0.1 0.05,0.19 0.01,0.09 0.03,0.18 0.05,0.28 0.01,0.1 0.03,0.19 0.05,0.27 0.01,0.09 0.03,0.14 0.05,0.18 0.02,0.03 0.03,0.07 0.04,0.11 0.01,0.04 0.01,0.07 0.01,0.1 0.02,0.09 0.07,0.13 0.15,0.1 0.16,-0.03 0.32,-0.05 0.49,-0.05 0.16,-0.01 0.32,0.01 0.48,0.05 0.05,0.02 0.11,0.03 0.16,0.05 0.05,0.01 0.09,0.04 0.14,0.07 0.05,0.04 0.08,0.08 0.07,0.1 0,0.02 -0.04,0.06 -0.11,0.12 0.03,0.06 0.03,0.1 0.02,0.11 -0.01,0.01 -0.05,0.01 -0.12,0 -0.1,-0.01 -0.19,-0.01 -0.29,-0.01 -0.09,0 -0.19,-0.01 -0.29,-0.02 -0.04,0 -0.08,-0.01 -0.11,-0.02 -0.04,-0.01 -0.08,-0.01 -0.12,-0.01l-0.37 0c-0.02,0.12 -0.04,0.24 -0.05,0.35 -0.02,0.11 -0.03,0.22 -0.03,0.33 0,0.03 0,0.11 0,0.25 0,0.13 0,0.27 0.01,0.42 0,0.15 0.01,0.29 0.02,0.43 0.02,0.13 0.02,0.21 0.02,0.24 0,0.06 0,0.14 0,0.24 0,0.1 0,0.21 -0.01,0.32 0,0.12 -0.01,0.23 -0.01,0.33 0,0.11 0,0.18 0,0.23l0 0.75c0.03,0.25 0.02,0.48 -0.01,0.69 -0.02,0.09 -0.04,0.18 -0.04,0.27 0,0.09 0,0.18 0,0.27 -0.01,0.15 -0.01,0.3 -0.01,0.45 0,0.14 -0.01,0.29 -0.02,0.44 0,0.1 0,0.2 -0.02,0.3 -0.01,0.1 -0.02,0.21 -0.03,0.34 0.03,-0.03 0.06,-0.04 0.08,-0.04 0.01,0 0.03,0 0.04,-0.01 0.15,-0.13 0.29,-0.25 0.42,-0.37 0.13,-0.12 0.25,-0.26 0.38,-0.42 0.06,-0.08 0.13,-0.17 0.21,-0.25 0.08,-0.09 0.15,-0.17 0.22,-0.26 0.05,-0.06 0.1,-0.12 0.13,-0.18 0.03,-0.07 0.07,-0.13 0.1,-0.19 0.11,-0.16 0.22,-0.33 0.33,-0.49 0.11,-0.16 0.22,-0.32 0.34,-0.49 0.09,-0.16 0.19,-0.33 0.29,-0.5 0.1,-0.16 0.18,-0.34 0.24,-0.53 0,-0.01 0.01,-0.03 0.03,-0.05 0.08,0.15 0.07,0.3 -0.02,0.45 -0.05,0.1 -0.1,0.21 -0.15,0.32 -0.04,0.11 -0.09,0.21 -0.15,0.31 -0.06,0.12 -0.13,0.25 -0.2,0.37 -0.08,0.12 -0.15,0.24 -0.23,0.36 -0.02,0.05 -0.04,0.09 -0.06,0.13 -0.03,0.04 -0.05,0.09 -0.07,0.14 -0.08,0.16 -0.17,0.3 -0.27,0.44 -0.1,0.14 -0.21,0.27 -0.33,0.39 -0.09,0.09 -0.16,0.18 -0.22,0.28 -0.06,0.1 -0.13,0.2 -0.21,0.29 -0.06,0.06 -0.11,0.13 -0.18,0.2 -0.06,0.06 -0.12,0.12 -0.17,0.18 -0.06,0.06 -0.12,0.11 -0.18,0.17 -0.07,0.05 -0.14,0.11 -0.2,0.16 -0.09,0.09 -0.18,0.14 -0.28,0.14 -0.09,0.01 -0.18,-0.01 -0.27,-0.05 -0.17,-0.07 -0.34,-0.15 -0.51,-0.23 -0.17,-0.08 -0.34,-0.17 -0.51,-0.27 -0.29,-0.19 -0.46,-0.49 -0.48,-0.88 0,-0.1 0,-0.2 -0.01,-0.3 0,-0.1 0,-0.2 0.01,-0.3 0,-0.16 0,-0.32 0,-0.49 0,-0.16 0.01,-0.33 0.02,-0.49 0,-0.05 0.01,-0.09 0.02,-0.12 0.02,-0.03 0.03,-0.07 0.03,-0.12 0,-0.05 0,-0.1 -0.01,-0.15 0,-0.05 -0.01,-0.11 -0.01,-0.16 0,-0.12 0,-0.24 0,-0.35 0,-0.11 0.01,-0.22 0.02,-0.33 0,-0.06 0,-0.14 0.01,-0.25 0,-0.1 0.01,-0.21 0.02,-0.33 0.01,-0.11 0.02,-0.22 0.03,-0.33 0,-0.11 0.01,-0.19 0.02,-0.24 0,-0.06 0,-0.16 0.01,-0.31 0.01,-0.15 0.01,-0.31 0.03,-0.47 0.01,-0.17 0.01,-0.33 0.02,-0.48 0.01,-0.15 0.01,-0.25 0.01,-0.3 0,-0.09 -0.01,-0.15 -0.03,-0.16 -0.01,-0.02 -0.07,-0.03 -0.17,-0.03 -0.16,0 -0.31,0 -0.47,0 -0.17,0 -0.32,0 -0.48,-0.01 -0.09,0 -0.17,-0.02 -0.24,-0.04 -0.07,-0.03 -0.15,-0.06 -0.22,-0.08l0 -0.05z"/>
  <path id="3" class="fil1" d="M55.29 91.02c-0.07,-0.02 -0.14,-0.08 -0.2,-0.17 -0.07,-0.1 -0.1,-0.19 -0.1,-0.28 0,-0.09 0.03,-0.15 0.08,-0.19 0.05,-0.04 0.11,-0.07 0.19,-0.09 0.11,-0.02 0.22,-0.05 0.32,-0.09 0.11,-0.04 0.22,-0.07 0.35,-0.08 0.08,-0.01 0.18,0 0.28,0.03 0.1,0.03 0.2,0.05 0.3,0.07 0.09,0.03 0.14,0.07 0.16,0.14 0.03,0.08 0.04,0.15 0.05,0.21 0.01,0.06 0.01,0.12 -0.01,0.18 -0.01,0.06 -0.04,0.11 -0.09,0.14 -0.09,0.06 -0.18,0.13 -0.28,0.19 -0.1,0.06 -0.22,0.09 -0.35,0.09l-0.7 -0.15zm3.2 3.16c0.03,0.03 0.03,0.06 0,0.09 -0.04,0.03 -0.07,0.07 -0.09,0.13 -0.09,0.17 -0.17,0.35 -0.25,0.54 -0.07,0.18 -0.17,0.37 -0.28,0.55 -0.03,0.06 -0.06,0.13 -0.09,0.2 -0.03,0.08 -0.06,0.15 -0.09,0.2 -0.11,0.17 -0.22,0.33 -0.34,0.48 -0.11,0.16 -0.24,0.3 -0.39,0.42 -0.05,0.03 -0.1,0.09 -0.15,0.16 -0.05,0.07 -0.1,0.12 -0.15,0.14 -0.09,0.02 -0.18,0.04 -0.26,0.07 -0.08,0.02 -0.17,0.03 -0.26,0.05 -0.1,0.02 -0.2,0.03 -0.3,0.02 -0.1,-0.01 -0.2,-0.03 -0.31,-0.07 -0.17,-0.08 -0.3,-0.18 -0.4,-0.31 -0.1,-0.13 -0.18,-0.28 -0.24,-0.44 -0.02,-0.09 -0.04,-0.18 -0.05,-0.27 -0.02,-0.09 -0.04,-0.18 -0.06,-0.26 -0.06,-0.19 -0.08,-0.37 -0.07,-0.54 0.01,-0.18 0.01,-0.35 -0.02,-0.53 -0.01,-0.19 0,-0.38 0.01,-0.56 0.02,-0.19 0.04,-0.38 0.06,-0.57 0.01,-0.11 0.02,-0.22 0.03,-0.32 0,-0.11 0.02,-0.22 0.04,-0.33 0.01,-0.09 0.02,-0.17 0.03,-0.25 0.01,-0.07 0.03,-0.16 0.05,-0.25 0.01,-0.03 0.02,-0.06 0.02,-0.1 0,-0.03 0,-0.06 0.01,-0.1 0.07,-0.29 0.25,-0.44 0.54,-0.44 0.09,0 0.18,0.02 0.27,0.05 0.09,0.04 0.19,0.08 0.27,0.11 0.14,0.06 0.24,0.14 0.31,0.24 0.07,0.11 0.15,0.21 0.23,0.31 0.03,0.06 0.05,0.12 0.05,0.19 0,0.07 0,0.14 0.01,0.21l0.05 0.2c0.01,0.05 0.02,0.11 0.02,0.17 0,0.06 0,0.12 0,0.18 0,0.13 0,0.26 -0.01,0.4 0,0.13 -0.01,0.26 -0.02,0.4 0,0.08 -0.01,0.17 -0.01,0.25 -0.01,0.09 -0.02,0.17 -0.03,0.26l0 0.18c-0.05,0.21 -0.09,0.43 -0.11,0.64 -0.02,0.22 -0.04,0.44 -0.05,0.66 0,0.03 0,0.07 0.01,0.1 0,0.03 -0.01,0.06 -0.03,0.08 -0.02,0.03 -0.05,0.06 -0.07,0.1 -0.03,0.03 -0.06,0.05 -0.1,0.05 -0.06,0.01 -0.1,0.04 -0.12,0.09 -0.02,0.04 -0.04,0.09 -0.06,0.15 0.06,-0.03 0.1,-0.05 0.14,-0.06 0.04,-0.02 0.09,-0.03 0.14,-0.04 0.15,-0.03 0.26,-0.08 0.35,-0.18 0.09,-0.09 0.18,-0.18 0.27,-0.27 0.28,-0.29 0.51,-0.6 0.7,-0.93 0.19,-0.34 0.37,-0.68 0.56,-1.03 0.02,-0.05 0.04,-0.09 0.05,-0.13 0.01,-0.04 0.03,-0.08 0.05,-0.14 0.05,0.02 0.07,0.03 0.08,0.02 0,-0.01 0.02,0 0.06,0.03zm-1.83 2.91c-0.04,0.01 -0.04,0.01 0,-0.01 0.03,-0.02 0.03,-0.01 0,0.01z"/>
  <path id="4" class="fil1" d="M59.78 96.64c0.04,-0.03 0.07,-0.07 0.09,-0.1 0.03,-0.03 0.06,-0.07 0.09,-0.1 0.23,-0.31 0.44,-0.6 0.64,-0.87 0.21,-0.27 0.41,-0.58 0.59,-0.91 0.03,-0.05 0.07,-0.13 0.12,-0.24 0.06,-0.1 0.1,-0.18 0.12,-0.24 0.02,-0.04 0.03,-0.09 0.04,-0.12 0,-0.04 0.02,-0.08 0.04,-0.13 0.03,-0.07 0.06,-0.13 0.09,-0.2 0.03,-0.06 0.06,-0.13 0.09,-0.2 0.01,-0.02 0.03,-0.03 0.05,-0.03 0.03,0 0.05,0 0.07,0 0.09,0.02 0.12,0.04 0.09,0.05 -0.03,0.01 -0.06,0.05 -0.09,0.13 -0.02,0.06 -0.03,0.11 -0.03,0.16 0,0.05 -0.01,0.1 -0.04,0.16 -0.02,0.05 -0.04,0.11 -0.06,0.16 -0.02,0.06 -0.05,0.11 -0.09,0.17 -0.11,0.19 -0.21,0.37 -0.32,0.55 -0.11,0.18 -0.22,0.35 -0.34,0.53 -0.11,0.16 -0.21,0.32 -0.29,0.5 -0.08,0.18 -0.18,0.34 -0.29,0.5 -0.09,0.11 -0.17,0.22 -0.24,0.33 -0.08,0.11 -0.16,0.22 -0.24,0.32 -0.1,0.11 -0.22,0.19 -0.34,0.25 -0.12,0.05 -0.26,0.06 -0.43,0.01 -0.05,-0.02 -0.11,-0.04 -0.17,-0.05 -0.05,-0.01 -0.11,-0.03 -0.16,-0.05 -0.17,-0.05 -0.3,-0.14 -0.4,-0.26 -0.1,-0.11 -0.19,-0.24 -0.28,-0.37 -0.09,-0.14 -0.15,-0.29 -0.17,-0.44 -0.02,-0.15 -0.03,-0.3 -0.03,-0.46 0.01,-0.23 0.01,-0.47 0.01,-0.7 0,-0.24 0.01,-0.48 0.02,-0.71 0.01,-0.19 0.02,-0.38 0.03,-0.57 0,-0.18 0.01,-0.37 0.04,-0.56 0,-0.12 0,-0.23 0.02,-0.33 0.02,-0.1 0.03,-0.21 0.04,-0.34 0,-0.06 0.01,-0.19 0.02,-0.38 0.01,-0.19 0.02,-0.39 0.04,-0.61 0.02,-0.22 0.03,-0.43 0.04,-0.62 0.01,-0.19 0.02,-0.31 0.02,-0.38 0.01,-0.13 0.02,-0.27 0.03,-0.4 0.01,-0.13 0.03,-0.27 0.04,-0.41 0.01,-0.13 0.01,-0.24 0.01,-0.35 0,-0.12 0.01,-0.23 0.04,-0.35 0.02,-0.15 0.04,-0.29 0.06,-0.43 0.02,-0.14 0.05,-0.28 0.07,-0.42 0.02,-0.16 0.12,-0.25 0.28,-0.27 0.12,-0.01 0.24,0 0.34,0.02 0.11,0.02 0.22,0.06 0.34,0.1 0.09,0.02 0.16,0.06 0.22,0.11 0.05,0.05 0.12,0.09 0.18,0.12 0.09,0.06 0.16,0.13 0.21,0.21 0.05,0.08 0.09,0.17 0.12,0.26 0.05,0.1 0.07,0.19 0.06,0.29 0,0.09 -0.01,0.19 -0.02,0.29 0,0.12 0,0.24 -0.01,0.35 -0.01,0.11 -0.01,0.22 -0.03,0.33 -0.02,0.14 -0.03,0.28 -0.05,0.42 -0.01,0.13 -0.02,0.26 -0.03,0.4 0,0.03 0,0.13 -0.02,0.29 -0.01,0.17 -0.02,0.35 -0.03,0.54 -0.01,0.2 -0.02,0.38 -0.02,0.55 -0.01,0.16 -0.01,0.26 -0.01,0.29 0,0.08 -0.01,0.16 -0.02,0.23 -0.01,0.07 -0.02,0.15 -0.03,0.24 -0.01,0.1 -0.02,0.2 -0.02,0.3 0,0.1 -0.01,0.2 -0.03,0.3 -0.03,0.15 -0.04,0.31 -0.03,0.46 0.02,0.15 0.02,0.3 0,0.45 -0.03,0.12 -0.04,0.25 -0.05,0.38 0,0.12 -0.01,0.25 -0.02,0.37 -0.01,0.06 -0.01,0.11 0,0.15 0.01,0.05 0.02,0.09 0.02,0.15 0,0.19 -0.01,0.37 -0.01,0.55 -0.01,0.18 -0.01,0.36 -0.01,0.55l0 0.06c0.01,0 0.02,0.01 0.02,0.01 0,0.01 0,0.01 0.01,0.01z"/>
  <path id="5" class="fil1" d="M65.55 94.99c0.09,-0.07 0.18,-0.11 0.27,-0.1 0.09,0 0.16,-0.03 0.23,-0.11 0.08,-0.1 0.17,-0.22 0.27,-0.36 0.11,-0.14 0.19,-0.26 0.26,-0.37 0.12,-0.19 0.23,-0.34 0.32,-0.46 0.09,-0.12 0.17,-0.27 0.26,-0.47 0.06,-0.13 0.11,-0.25 0.17,-0.37 0.05,-0.12 0.11,-0.24 0.17,-0.37 0.02,0.06 0.04,0.09 0.05,0.1 0.02,0.02 0.02,0.05 0,0.12 -0.13,0.48 -0.29,0.89 -0.49,1.24 -0.2,0.35 -0.4,0.64 -0.61,0.86 -0.21,0.23 -0.41,0.4 -0.58,0.52 -0.18,0.12 -0.3,0.18 -0.35,0.19 -0.07,0 -0.11,0.03 -0.12,0.08 -0.03,0.14 -0.08,0.25 -0.15,0.35 -0.11,0.21 -0.17,0.44 -0.17,0.68 0,0.21 -0.1,0.38 -0.31,0.5 -0.11,0.06 -0.22,0.09 -0.32,0.11 -0.11,0.02 -0.22,0.01 -0.35,-0.01 -0.07,0 -0.15,-0.01 -0.21,-0.02 -0.07,-0.02 -0.14,-0.04 -0.22,-0.06 -0.09,-0.02 -0.17,-0.05 -0.25,-0.08 -0.07,-0.02 -0.16,-0.05 -0.25,-0.09 -0.06,-0.03 -0.13,-0.07 -0.19,-0.1 -0.06,-0.04 -0.12,-0.07 -0.19,-0.1 -0.15,-0.07 -0.3,-0.17 -0.42,-0.27 -0.13,-0.11 -0.25,-0.21 -0.38,-0.31 -0.26,-0.23 -0.43,-0.49 -0.51,-0.76 -0.02,-0.09 -0.04,-0.17 -0.04,-0.25 -0.01,-0.08 -0.02,-0.16 -0.05,-0.23 -0.05,-0.16 -0.07,-0.31 -0.05,-0.46 0.03,-0.15 0.05,-0.3 0.09,-0.46 0.03,-0.12 0.08,-0.24 0.14,-0.37 0.06,-0.12 0.12,-0.24 0.19,-0.36 0.12,-0.23 0.27,-0.47 0.45,-0.72 0.08,-0.08 0.16,-0.17 0.26,-0.25 0.09,-0.09 0.2,-0.15 0.32,-0.19 0.05,-0.03 0.08,-0.05 0.11,-0.08 0.03,-0.03 0.06,-0.05 0.09,-0.07 0.09,-0.07 0.18,-0.11 0.27,-0.11 0.1,-0.01 0.2,0 0.3,0.02 0.1,0.01 0.17,0.04 0.23,0.09 0.05,0.05 0.11,0.12 0.16,0.2 0.04,0.05 0.07,0.11 0.11,0.17 0.04,0.06 0.08,0.12 0.11,0.19 0.03,0.05 0.08,0.06 0.15,0.03 0.04,-0.02 0.09,-0.04 0.14,-0.05 0.05,-0.02 0.1,-0.02 0.14,-0.01 0.07,0.02 0.14,0.04 0.2,0.06 0.07,0.03 0.13,0.07 0.19,0.14 0.04,0.04 0.08,0.08 0.12,0.11 0.04,0.04 0.07,0.08 0.11,0.12 0.19,0.24 0.27,0.54 0.25,0.88 0,0.05 0,0.08 0.01,0.12 0,0.03 0.01,0.07 0.02,0.11 0.01,0.08 0.02,0.16 0.03,0.24 0,0.07 0.01,0.15 0.02,0.23l0 0.56zm-1.86 -1.32l-0.05 0c-0.05,0.06 -0.09,0.12 -0.14,0.19 -0.05,0.06 -0.09,0.13 -0.11,0.2 -0.06,0.14 -0.1,0.27 -0.13,0.4 -0.04,0.14 -0.05,0.28 -0.04,0.43 0,0.06 0,0.11 0,0.15 0,0.05 0.01,0.1 0.04,0.15 0.02,0.07 0.03,0.14 0.04,0.21 0,0.07 0.01,0.15 0.01,0.23 0,0.05 0,0.11 0.01,0.17 0.01,0.06 0.04,0.11 0.07,0.14 0.08,0.1 0.17,0.17 0.28,0.2 0.11,0.04 0.23,0.06 0.35,0.09 0.07,0.01 0.13,-0.01 0.18,-0.05 0.06,-0.04 0.11,-0.08 0.17,-0.12 0.14,-0.11 0.27,-0.23 0.38,-0.36 0.11,-0.13 0.19,-0.28 0.22,-0.47 -0.68,-0.32 -1.1,-0.85 -1.28,-1.56zm1.31 1.11l0.07 0c0.01,-0.1 0.01,-0.2 0.01,-0.3 0,-0.1 0,-0.19 0,-0.28 0.02,-0.13 0.01,-0.24 -0.02,-0.34 -0.03,-0.11 -0.05,-0.22 -0.06,-0.35 -0.02,-0.16 -0.11,-0.31 -0.26,-0.44 -0.15,-0.12 -0.28,-0.2 -0.4,-0.24 -0.04,-0.02 -0.07,-0.01 -0.1,0.02 -0.03,0.06 -0.05,0.11 -0.07,0.15 -0.02,0.04 -0.03,0.09 -0.02,0.15 0.06,0.21 0.16,0.4 0.3,0.58 0.04,0.05 0.06,0.09 0.09,0.13 0.02,0.04 0.04,0.07 0.05,0.11 0.02,0.04 0.04,0.08 0.06,0.11 0.05,0.08 0.09,0.15 0.13,0.22 0.04,0.08 0.07,0.15 0.11,0.23 0.02,0.04 0.04,0.09 0.05,0.12 0.02,0.04 0.04,0.08 0.06,0.13z"/>
  <path id="6" class="fil1" d="M26.58 94.46c0.04,0.03 0.04,0.05 0,0.07 -0.03,0.02 -0.06,0.05 -0.08,0.1 -0.09,0.15 -0.17,0.31 -0.25,0.46 -0.08,0.15 -0.17,0.3 -0.28,0.45 -0.03,0.06 -0.06,0.11 -0.08,0.17 -0.03,0.05 -0.06,0.11 -0.1,0.17 -0.1,0.13 -0.21,0.26 -0.33,0.39 -0.11,0.12 -0.25,0.24 -0.41,0.34 -0.04,0.03 -0.09,0.07 -0.14,0.13 -0.05,0.06 -0.1,0.09 -0.15,0.12 -0.09,0.02 -0.18,0.04 -0.26,0.05 -0.09,0.01 -0.17,0.02 -0.26,0.05 -0.14,0.02 -0.28,0.02 -0.42,0 -0.04,0.02 -0.08,0.04 -0.11,0.06 -0.04,0.03 -0.07,0.05 -0.12,0.07 -0.04,0.02 -0.12,0.04 -0.23,0.07 -0.01,0 -0.06,0.01 -0.16,0.03 -0.09,0.02 -0.2,0.04 -0.32,0.06 -0.11,0.01 -0.23,0.03 -0.34,0.06 -0.11,0.02 -0.18,0.03 -0.23,0.03 -0.05,0.01 -0.1,0.02 -0.14,0.03 -0.04,0.01 -0.09,0 -0.14,-0.05l-0.03 0c-0.12,0.04 -0.22,0.02 -0.3,-0.03 -0.09,-0.06 -0.18,-0.1 -0.27,-0.13 -0.02,-0.02 -0.04,-0.03 -0.05,-0.04 -0.01,-0.01 -0.03,-0.01 -0.05,-0.01 -0.05,-0.01 -0.1,-0.04 -0.13,-0.07 -0.04,-0.03 -0.06,-0.07 -0.09,-0.12 -0.02,-0.03 -0.01,-0.07 0.04,-0.13 0.04,-0.06 0.09,-0.07 0.13,-0.03 0.09,0.05 0.17,0.1 0.26,0.15 0.08,0.04 0.17,0.07 0.27,0.08 0.04,0.01 0.1,0.03 0.19,0.05 0.12,0.01 0.22,-0.01 0.29,-0.06 0.08,-0.05 0.15,-0.11 0.2,-0.17 0.03,-0.05 0.05,-0.07 0.09,-0.07 0.16,-0.07 0.29,-0.16 0.38,-0.27 0.09,-0.12 0.17,-0.25 0.23,-0.39 0.04,-0.07 0.07,-0.14 0.09,-0.21 0.03,-0.07 0.05,-0.15 0.05,-0.23 0,-0.15 -0.01,-0.31 -0.02,-0.47 -0.01,-0.16 -0.06,-0.32 -0.13,-0.49 -0.1,-0.21 -0.23,-0.42 -0.39,-0.63 -0.05,-0.08 -0.12,-0.15 -0.2,-0.22 -0.09,-0.07 -0.16,-0.14 -0.23,-0.22 -0.09,-0.1 -0.18,-0.19 -0.29,-0.28 -0.11,-0.09 -0.2,-0.17 -0.29,-0.26 -0.01,0 -0.06,-0.04 -0.13,-0.12l-0.14 -0.13c-0.12,-0.14 -0.22,-0.26 -0.3,-0.39 -0.07,-0.12 -0.14,-0.26 -0.2,-0.43 -0.1,-0.26 -0.1,-0.51 0,-0.75 0.03,-0.05 0.06,-0.1 0.1,-0.14 0.05,-0.04 0.09,-0.08 0.14,-0.12 0.03,-0.04 0.07,-0.07 0.11,-0.09 0.05,-0.03 0.09,-0.06 0.12,-0.09 0.13,-0.13 0.31,-0.2 0.53,-0.24 0.22,-0.03 0.44,0.04 0.65,0.22 0.02,0.02 0.05,0.06 0.08,0.11 0.04,0.05 0.06,0.1 0.08,0.15 0.01,0.05 0.02,0.09 0.01,0.12 0,0.03 -0.03,0.05 -0.07,0.05 -0.04,0 -0.08,0.04 -0.1,0.12 -0.02,0.08 -0.04,0.15 -0.07,0.22 -0.02,0.07 -0.05,0.14 -0.08,0.21 -0.02,0.04 -0.05,0.08 -0.08,0.11 -0.04,0.03 -0.06,0.06 -0.09,0.09 -0.06,0.1 -0.08,0.18 -0.06,0.25 0.02,0.07 0.09,0.16 0.2,0.28 0.12,0.15 0.26,0.27 0.41,0.38 0.16,0.1 0.31,0.21 0.47,0.34 0.14,0.08 0.28,0.18 0.4,0.29 0.12,0.1 0.24,0.22 0.36,0.34 0.07,0.06 0.13,0.13 0.19,0.2 0.07,0.06 0.12,0.13 0.18,0.2 0.05,0.05 0.1,0.1 0.15,0.15 0.04,0.05 0.09,0.11 0.15,0.16 0.09,0.09 0.15,0.19 0.17,0.29 0.03,0.09 0.06,0.19 0.08,0.29 0.02,0.06 0.04,0.11 0.05,0.15 0.01,0.03 0.01,0.08 0.01,0.14 0.02,0.15 -0.01,0.29 -0.06,0.41 -0.06,0.12 -0.12,0.23 -0.19,0.33 -0.08,0.09 -0.15,0.17 -0.24,0.24 -0.08,0.06 -0.14,0.12 -0.19,0.16l-0.1 0.1 0.15 -0.05c0.15,-0.02 0.26,-0.07 0.35,-0.14 0.09,-0.07 0.18,-0.14 0.27,-0.22 0.29,-0.23 0.52,-0.49 0.71,-0.78 0.19,-0.28 0.37,-0.56 0.55,-0.85 0.02,-0.02 0.04,-0.05 0.05,-0.08 0.01,-0.04 0.03,-0.08 0.05,-0.14 0.05,0.02 0.07,0.03 0.08,0.02 0,-0.01 0.02,0 0.05,0.03z"/>
  <path id="7" class="fil1" d="M26.23 95.34l0.1 -0.54c0,-0.05 0.01,-0.09 0.01,-0.13 0.01,-0.04 0.02,-0.09 0.03,-0.14 0.01,-0.02 0.02,-0.04 0.03,-0.07 0.01,-0.02 0.02,-0.04 0.03,-0.06 0.03,-0.13 0.05,-0.24 0.09,-0.34 0.03,-0.1 0.07,-0.2 0.11,-0.3 0.08,-0.2 0.18,-0.4 0.3,-0.61 0.03,-0.06 0.07,-0.11 0.11,-0.18 0.03,-0.06 0.07,-0.11 0.1,-0.17 0.03,-0.03 0.05,-0.07 0.07,-0.1 0.02,-0.03 0.04,-0.06 0.07,-0.08 0.03,-0.04 0.06,-0.07 0.09,-0.11 0.03,-0.04 0.06,-0.07 0.09,-0.09 0.06,-0.08 0.13,-0.15 0.2,-0.23 0.06,-0.07 0.13,-0.13 0.21,-0.19 0.05,-0.05 0.11,-0.09 0.17,-0.12 0.07,-0.03 0.12,-0.06 0.18,-0.09 0.04,-0.03 0.07,-0.05 0.1,-0.07 0.05,-0.07 0.11,-0.11 0.19,-0.14 0.07,-0.03 0.14,-0.05 0.22,-0.08 0.05,-0.02 0.11,-0.04 0.16,-0.05 0.06,-0.01 0.13,0 0.2,0.02 0.06,0.01 0.11,0.02 0.16,0.03 0.05,0 0.1,0.02 0.16,0.05 0.12,0.09 0.2,0.19 0.25,0.3 0.01,0.06 0.04,0.13 0.08,0.22 0.02,0.05 0.05,0.1 0.08,0.14 0.02,0.04 0.05,0.09 0.07,0.14 0,0.01 0,0.02 0.01,0.03 0.01,0.02 0.01,0.03 0.01,0.04 -0.01,0.05 -0.02,0.11 -0.03,0.17 0,0.06 -0.02,0.12 -0.04,0.18 0,0.07 -0.01,0.15 -0.05,0.21 0,0.01 0,0.03 -0.01,0.04 -0.02,0.01 -0.03,0.02 -0.04,0.05 -0.02,0.03 -0.04,0.06 -0.06,0.1 -0.01,0.03 -0.03,0.06 -0.05,0.1 -0.04,0.05 -0.07,0.11 -0.1,0.16 -0.02,0.06 -0.05,0.11 -0.09,0.17 0,0 -0.01,0.01 -0.05,0.05 -0.09,0.04 -0.14,0.08 -0.16,0.11 -0.16,0.24 -0.34,0.44 -0.55,0.6 -0.09,0.08 -0.18,0.15 -0.27,0.22 -0.1,0.07 -0.19,0.14 -0.27,0.22 -0.08,0.05 -0.16,0.1 -0.24,0.14 -0.07,0.05 -0.15,0.1 -0.23,0.15 -0.07,0.04 -0.12,0.12 -0.15,0.24 -0.03,0.1 -0.06,0.2 -0.09,0.31 -0.02,0.11 -0.05,0.22 -0.07,0.34 -0.02,0.08 -0.04,0.17 -0.05,0.25 -0.01,0.09 -0.04,0.17 -0.08,0.24 0,0.02 0,0.03 0.01,0.04 0,0.01 0,0.02 0,0.03 0.08,0.09 0.16,0.17 0.24,0.23 0.08,0.07 0.19,0.11 0.33,0.12 0.08,0.01 0.17,0.01 0.26,0 0.09,-0.01 0.18,-0.03 0.26,-0.05 0.09,-0.01 0.18,-0.04 0.26,-0.08 0.08,-0.05 0.16,-0.1 0.24,-0.15 0.09,-0.07 0.18,-0.13 0.27,-0.19 0.1,-0.05 0.19,-0.12 0.28,-0.19 0.13,-0.11 0.25,-0.21 0.37,-0.32 0.12,-0.11 0.22,-0.24 0.31,-0.38 0.06,-0.1 0.14,-0.2 0.21,-0.3 0.08,-0.1 0.15,-0.2 0.22,-0.3 0.11,-0.18 0.22,-0.36 0.32,-0.53 0.11,-0.18 0.22,-0.36 0.33,-0.55 0.03,-0.06 0.07,-0.11 0.1,-0.17 0.03,-0.05 0.06,-0.11 0.1,-0.17 0.03,-0.03 0.06,-0.03 0.1,-0.01 0.04,0.02 0.07,0.06 0.08,0.11 0.01,0.06 0.01,0.12 -0.02,0.17 -0.02,0.09 -0.06,0.16 -0.12,0.2 -0.06,0.04 -0.12,0.1 -0.17,0.17 -0.06,0.05 -0.09,0.12 -0.09,0.21 -0.02,0.07 -0.04,0.13 -0.06,0.19l-0.1 0.25c-0.03,0.05 -0.05,0.08 -0.09,0.09 -0.05,0.06 -0.1,0.11 -0.15,0.16 -0.04,0.05 -0.07,0.12 -0.1,0.21 -0.01,0.03 -0.02,0.06 -0.05,0.09 -0.02,0.03 -0.04,0.06 -0.06,0.09 -0.06,0.1 -0.12,0.2 -0.19,0.29 -0.06,0.1 -0.14,0.18 -0.23,0.26 -0.04,0.05 -0.08,0.09 -0.11,0.13 -0.02,0.05 -0.05,0.1 -0.07,0.15 -0.06,0.1 -0.12,0.2 -0.18,0.28 -0.07,0.08 -0.15,0.15 -0.24,0.21 -0.05,0.03 -0.11,0.06 -0.16,0.09 -0.04,0.03 -0.1,0.06 -0.15,0.09 -0.05,0.02 -0.09,0.05 -0.12,0.07 -0.03,0.03 -0.07,0.06 -0.12,0.08 -0.05,0.02 -0.1,0.04 -0.15,0.05 -0.04,0.01 -0.09,0.03 -0.14,0.05 -0.09,0.02 -0.15,0.03 -0.19,0.03 -0.05,0.01 -0.1,0.02 -0.14,0.02 -0.05,0 -0.1,0 -0.15,0.02 -0.16,0.02 -0.3,0.01 -0.44,-0.02 -0.14,-0.03 -0.28,-0.08 -0.42,-0.13 -0.12,-0.06 -0.23,-0.13 -0.33,-0.23 -0.1,-0.09 -0.19,-0.2 -0.28,-0.31 -0.08,-0.08 -0.15,-0.19 -0.22,-0.31 -0.06,-0.15 -0.12,-0.29 -0.17,-0.44 -0.05,-0.15 -0.07,-0.3 -0.06,-0.46 -0.01,0 -0.02,0 -0.02,-0.02zm3.05 -2.89c-0.02,0.02 -0.04,0.04 -0.06,0.05 -0.03,0.01 -0.05,0.03 -0.07,0.05 -0.06,0.03 -0.11,0.07 -0.16,0.1 -0.05,0.03 -0.1,0.07 -0.16,0.1 -0.02,0.02 -0.04,0.04 -0.06,0.04 -0.03,0.01 -0.04,0.02 -0.05,0.04 -0.06,0.09 -0.11,0.18 -0.16,0.25 -0.05,0.08 -0.1,0.16 -0.16,0.24 -0.02,0.03 -0.03,0.06 -0.04,0.09 -0.01,0.02 -0.02,0.05 -0.04,0.07 -0.02,0.06 -0.05,0.1 -0.09,0.14 -0.03,0.04 -0.06,0.09 -0.08,0.14 -0.02,0.06 -0.04,0.12 -0.06,0.18 -0.01,0.06 -0.03,0.12 -0.05,0.17 -0.08,0.18 -0.15,0.38 -0.22,0.59 0,0 0.02,-0.02 0.07,-0.04 0.08,-0.05 0.17,-0.11 0.25,-0.16 0.09,-0.06 0.17,-0.12 0.24,-0.19 0.12,-0.09 0.22,-0.18 0.33,-0.28 0.1,-0.1 0.21,-0.2 0.31,-0.32 0.12,-0.12 0.21,-0.26 0.27,-0.41 0.06,-0.16 0.12,-0.32 0.18,-0.48 0.02,-0.05 0.03,-0.09 0.03,-0.13 0,-0.04 0,-0.08 0.02,-0.14 -0.12,0.03 -0.19,0 -0.24,-0.1z"/>
  <path id="8" class="fil1" d="M30.47 92.52c0.03,-0.02 0.04,-0.05 0.05,-0.08 0,-0.03 0.01,-0.05 0.04,-0.07 0.07,-0.1 0.15,-0.2 0.23,-0.31 0.08,-0.1 0.15,-0.21 0.23,-0.31 0.01,-0.02 0.02,-0.03 0.02,-0.03 0.03,-0.17 0.14,-0.27 0.31,-0.3 0.09,-0.02 0.19,-0.04 0.28,-0.04 0.09,-0.01 0.18,0.01 0.27,0.06 0.11,0.04 0.21,0.1 0.29,0.18 0.07,0.08 0.15,0.16 0.21,0.25 0.11,0.15 0.18,0.32 0.2,0.48 0.02,0.17 0.03,0.34 0.02,0.52 0,0.07 0,0.15 0.02,0.22 0.01,0.07 0.02,0.15 0.03,0.23 0.01,0.08 0.02,0.18 0.03,0.27 0.01,0.09 0.02,0.19 0.03,0.27 0,0.13 0,0.25 0,0.36 -0.01,0.12 -0.02,0.24 -0.03,0.36 -0.01,0.19 -0.02,0.37 -0.02,0.56 0,0.18 -0.01,0.36 -0.04,0.55 -0.03,0.09 -0.04,0.18 -0.05,0.27 0,0.09 -0.02,0.18 -0.04,0.28 0.06,-0.05 0.11,-0.11 0.16,-0.16 0.05,-0.05 0.1,-0.1 0.14,-0.15 0.11,-0.16 0.22,-0.32 0.33,-0.49 0.1,-0.16 0.2,-0.33 0.3,-0.51 0.08,-0.16 0.15,-0.31 0.22,-0.48 0.07,-0.16 0.13,-0.31 0.2,-0.47 0.05,-0.14 0.1,-0.28 0.13,-0.42 0.03,-0.13 0.07,-0.27 0.1,-0.41 0.02,-0.09 0.03,-0.18 0.03,-0.26 0,-0.08 0,-0.17 0,-0.26 0.02,-0.05 0.02,-0.11 0.02,-0.17 0,-0.06 0.01,-0.12 0.02,-0.17l0 -0.04c0.08,-0.03 0.13,-0.08 0.17,-0.16 0.04,-0.07 0.11,-0.12 0.21,-0.14 0.09,0 0.17,0 0.23,-0.01 0.07,-0.02 0.14,0.01 0.22,0.06 0.07,0.06 0.13,0.11 0.21,0.15 0.07,0.05 0.13,0.1 0.19,0.15 0.03,0.02 0.06,0.05 0.07,0.09 0.02,0.04 0.04,0.08 0.06,0.11 0.02,0.06 0.04,0.11 0.07,0.17 0.02,0.05 0.03,0.11 0.03,0.16 0.01,0.06 0.02,0.11 0.03,0.15 0.01,0.05 0.02,0.1 0.02,0.15 0.01,0.22 0.02,0.44 0.02,0.64 0,0.21 0,0.42 0,0.63 0,0.11 0,0.21 0.01,0.31 0,0.1 0,0.2 -0.01,0.3 -0.01,0.1 -0.02,0.2 -0.03,0.31 0,0.1 -0.01,0.21 -0.02,0.31 -0.01,0.03 -0.02,0.08 -0.02,0.15 0.04,0.08 0.05,0.17 0.03,0.25 -0.03,0.07 -0.06,0.16 -0.08,0.24 -0.01,0.07 -0.02,0.13 -0.02,0.2 -0.01,0.06 -0.02,0.13 -0.03,0.2 0.07,-0.02 0.11,-0.04 0.12,-0.05 0.15,-0.14 0.29,-0.29 0.42,-0.44 0.13,-0.15 0.25,-0.31 0.36,-0.49 0.05,-0.09 0.11,-0.17 0.16,-0.25 0.05,-0.09 0.1,-0.17 0.15,-0.26 0.07,-0.14 0.13,-0.27 0.2,-0.41 0.06,-0.14 0.12,-0.27 0.19,-0.41 0.07,-0.14 0.13,-0.29 0.16,-0.43 0.04,-0.14 0.07,-0.29 0.12,-0.45 0,-0.02 0,-0.04 0.01,-0.05 0,-0.01 0.01,-0.03 0.02,-0.05 0.09,0.07 0.11,0.15 0.06,0.23 -0.05,0.09 -0.08,0.18 -0.09,0.27 -0.01,0.09 -0.03,0.18 -0.05,0.27 -0.02,0.09 -0.07,0.17 -0.13,0.25 -0.04,0.03 -0.04,0.06 0,0.1 0.03,0.03 0.04,0.06 0.04,0.1 -0.01,0.03 -0.02,0.06 -0.04,0.1 -0.07,0.18 -0.14,0.37 -0.23,0.54 -0.08,0.18 -0.18,0.35 -0.29,0.52 -0.03,0.04 -0.06,0.09 -0.08,0.14 -0.02,0.05 -0.05,0.1 -0.07,0.16 -0.03,0.1 -0.08,0.18 -0.14,0.26 -0.06,0.07 -0.14,0.14 -0.22,0.2 -0.03,0.02 -0.04,0.03 -0.05,0.05 -0.02,0.01 -0.03,0.03 -0.05,0.05 -0.06,0.13 -0.14,0.2 -0.25,0.24 -0.03,0 -0.05,0.02 -0.07,0.06 -0.03,0.09 -0.09,0.15 -0.18,0.19 -0.06,0.02 -0.11,0.05 -0.14,0.09 -0.04,0.04 -0.1,0.05 -0.16,0.04 -0.12,-0.01 -0.2,-0.04 -0.23,-0.09 -0.02,-0.05 -0.09,-0.11 -0.19,-0.18 -0.13,-0.1 -0.25,-0.21 -0.36,-0.33 -0.11,-0.12 -0.2,-0.27 -0.25,-0.43 -0.05,-0.12 -0.08,-0.26 -0.1,-0.42 -0.04,-0.1 -0.05,-0.19 -0.05,-0.28 -0.02,-0.11 -0.04,-0.22 -0.04,-0.32 0,-0.11 0,-0.22 -0.01,-0.33 -0.01,-0.05 -0.02,-0.11 -0.02,-0.16 0,-0.06 0,-0.12 -0.02,-0.17 0,-0.01 -0.01,-0.02 -0.03,-0.02 -0.02,0.05 -0.04,0.09 -0.06,0.14 -0.01,0.04 -0.03,0.08 -0.06,0.13 -0.08,0.19 -0.17,0.38 -0.26,0.56 -0.09,0.19 -0.19,0.38 -0.3,0.57 -0.06,0.09 -0.12,0.17 -0.21,0.25 -0.08,0.08 -0.17,0.15 -0.26,0.23 -0.08,0.09 -0.18,0.17 -0.28,0.23 -0.1,0.07 -0.2,0.13 -0.3,0.19 -0.12,0.06 -0.24,0.1 -0.35,0.12 -0.11,0.02 -0.22,-0.02 -0.35,-0.11 -0.02,-0.02 -0.04,-0.05 -0.07,-0.08 -0.03,-0.03 -0.05,-0.06 -0.08,-0.08 -0.08,-0.12 -0.14,-0.25 -0.17,-0.38 -0.03,-0.12 -0.05,-0.26 -0.06,-0.4 0,-0.15 0,-0.29 -0.01,-0.44 0,-0.14 0,-0.29 0,-0.45 0,-0.03 0,-0.06 0.01,-0.1 0.01,-0.04 0.02,-0.08 0.02,-0.13 0,-0.14 0,-0.28 -0.01,-0.42 -0.01,-0.14 -0.01,-0.28 -0.01,-0.43 0,-0.2 0,-0.4 0.01,-0.59 0.01,-0.2 0.01,-0.4 0.01,-0.6 0,-0.09 -0.01,-0.18 -0.02,-0.28 -0.01,-0.09 -0.02,-0.18 -0.03,-0.27 -0.01,-0.06 -0.05,-0.07 -0.1,-0.03 -0.06,0.05 -0.11,0.11 -0.18,0.16 -0.06,0.06 -0.12,0.11 -0.19,0.15 -0.03,0.02 -0.07,0.04 -0.1,0.05 -0.04,0.01 -0.09,0.03 -0.13,0.05 0,-0.02 -0.01,-0.03 -0.02,-0.03z"/>
  <path id="9" class="fil1" d="M68.13 93.38c0.03,-0.14 0.05,-0.29 0.06,-0.46 0.01,-0.16 0.05,-0.3 0.1,-0.42 0,-0.1 0,-0.17 0,-0.22 -0.01,-0.05 -0.04,-0.13 -0.1,-0.23l0 -1.28c0.06,-0.15 0.09,-0.29 0.1,-0.42 0,-0.13 0,-0.25 0,-0.38 0,-0.32 0.01,-0.64 0.01,-0.97 0.01,-0.33 0.04,-0.64 0.09,-0.94l0 -0.6 0 -1.13c0,-0.05 0.02,-0.1 0.05,-0.15 0.04,-0.04 0.07,-0.09 0.1,-0.15 0.22,-0.07 0.46,-0.11 0.71,-0.12 0.25,-0.01 0.48,0.02 0.71,0.07 0.12,0.02 0.24,0.06 0.35,0.15 0.12,0.08 0.21,0.18 0.29,0.31 0.07,0.13 0.12,0.26 0.15,0.41 0.02,0.14 0.01,0.28 -0.03,0.41 -0.03,0.1 -0.05,0.21 -0.06,0.32 0,0.11 -0.01,0.21 -0.01,0.28 0,0.27 -0.01,0.52 -0.05,0.75 -0.03,0.23 -0.05,0.48 -0.05,0.73 -0.05,0.27 -0.08,0.53 -0.1,0.8 -0.01,0.27 -0.03,0.53 -0.08,0.78 -0.03,0.18 -0.07,0.35 -0.12,0.52 -0.04,0.16 -0.08,0.32 -0.13,0.46 0,0.12 -0.04,0.24 -0.12,0.34 -0.09,0.11 -0.22,0.16 -0.39,0.16 -0.15,0 -0.29,0.06 -0.43,0.18 -0.14,0.11 -0.2,0.26 -0.2,0.45 0,0.08 -0.02,0.16 -0.05,0.25 -0.02,0.09 -0.04,0.17 -0.04,0.25l-0.06 0.1c-0.06,0.06 -0.12,0.09 -0.18,0.11 -0.06,0.02 -0.06,0.06 -0.01,0.14 0,0.02 0,0.04 -0.01,0.05 -0.03,0.03 -0.05,0.05 -0.09,0.05 -0.03,0.04 -0.1,0.03 -0.2,-0.03 -0.1,-0.07 -0.15,-0.14 -0.15,-0.22 0,-0.05 0,-0.12 0,-0.2 -0.01,-0.08 -0.03,-0.13 -0.06,-0.15zm0.7 1.73c0.12,0 0.26,0.02 0.42,0.05 0.16,0.03 0.3,0.05 0.42,0.05 0.15,0.02 0.3,0.11 0.46,0.25 0.16,0.14 0.24,0.29 0.24,0.43 0,0.18 0,0.34 -0.01,0.47 -0.02,0.13 -0.07,0.26 -0.15,0.38 -0.13,0.22 -0.29,0.36 -0.5,0.42 -0.2,0.06 -0.41,0.07 -0.64,0.03 -0.12,-0.06 -0.25,-0.09 -0.39,-0.1 -0.13,-0.01 -0.26,-0.03 -0.39,-0.07 -0.23,0 -0.35,-0.11 -0.35,-0.33l0 -0.35 0 -0.8c0,-0.09 0.05,-0.16 0.15,-0.23 0.1,-0.07 0.2,-0.1 0.3,-0.1 0.03,-0.03 0.06,-0.06 0.1,-0.08 0.02,-0.01 0.04,-0.02 0.05,-0.02l0.29 0z"/>
 </g>
</svg>
